Coordinates
version=1
nRows=4
nColumns=124
inDegrees=yes

Units are S.I. units (second, meters, Newtons, ...)
If the header above contains a line with 'inDegrees', this indicates whether rotational values are in degrees (yes) or radians (no).

endheader 
time	pelvis_tilt	pelvis_list	pelvis_rotation	pelvis_tx	pelvis_ty	pelvis_tz	hip_flexion_l	hip_adduction_l	hip_rotation_l	hip_flexion_r	hip_adduction_r	hip_rotation_r	knee_angle_l	knee_angle_r	ankle_angle_l	ankle_angle_r	subtalar_angle_l	subtalar_angle_r	mtp_angle_l	mtp_angle_r	lumbar_extension	lumbar_bending	lumbar_rotation	arm_flex_l	arm_add_l	arm_rot_l	arm_flex_r	arm_add_r	arm_rot_r	elbow_flex_l	elbow_flex_r	glut_med1_l/activation	glut_med2_l/activation	glut_med3_l/activation	glut_min1_l/activation	glut_min2_l/activation	glut_min3_l/activation	semimem_l/activation	semiten_l/activation	bifemlh_l/activation	bifemsh_l/activation	sar_l/activation	add_long_l/activation	add_brev_l/activation	add_mag1_l/activation	add_mag2_l/activation	add_mag3_l/activation	tfl_l/activation	pect_l/activation	grac_l/activation	glut_max1_l/activation	glut_max2_l/activation	glut_max3_l/activation	iliacus_l/activation	psoas_l/activation	quad_fem_l/activation	gem_l/activation	peri_l/activation	rect_fem_l/activation	vas_med_l/activation	vas_int_l/activation	vas_lat_l/activation	med_gas_l/activation	lat_gas_l/activation	soleus_l/activation	tib_post_l/activation	flex_dig_l/activation	flex_hal_l/activation	tib_ant_l/activation	per_brev_l/activation	per_long_l/activation	per_tert_l/activation	ext_dig_l/activation	ext_hal_l/activation	ercspn_l/activation	intobl_l/activation	extobl_l/activation	glut_med1_r/activation	glut_med2_r/activation	glut_med3_r/activation	glut_min1_r/activation	glut_min2_r/activation	glut_min3_r/activation	semimem_r/activation	semiten_r/activation	bifemlh_r/activation	bifemsh_r/activation	sar_r/activation	add_long_r/activation	add_brev_r/activation	add_mag1_r/activation	add_mag2_r/activation	add_mag3_r/activation	tfl_r/activation	pect_r/activation	grac_r/activation	glut_max1_r/activation	glut_max2_r/activation	glut_max3_r/activation	iliacus_r/activation	psoas_r/activation	quad_fem_r/activation	gem_r/activation	peri_r/activation	rect_fem_r/activation	vas_med_r/activation	vas_int_r/activation	vas_lat_r/activation	med_gas_r/activation	lat_gas_r/activation	soleus_r/activation	tib_post_r/activation	flex_dig_r/activation	flex_hal_r/activation	tib_ant_r/activation	per_brev_r/activation	per_long_r/activation	per_tert_r/activation	ext_dig_r/activation	ext_hal_r/activation	ercspn_r/activation	intobl_r/activation	extobl_r/activation	
          0.00000000	          0.01850086	         -6.90671649	          4.80972807	          0.00000000	          1.01645431	         -0.00693808	        -10.76735218	         -6.49325571	          8.48744044	         17.16104982	          8.93604704	         -6.42915698	         -1.07720426	         -2.48383165	         14.34527705	         11.18866537	        -10.80359692	         -3.94324491	          6.60069235	          0.23126363	         -3.12094557	         -1.03563014	          0.65804968	         -4.80706066	        -14.47072030	         13.96029814	         19.41538093	        -13.48414556	          9.40367032	          1.33997959	         47.31243760	          0.05004901	          0.28747324	          0.27074219	          0.09919332	          0.15627571	          0.10024925	          0.05000191	          0.05000165	          0.05000105	          0.23450784	          0.28297407	          0.05000225	          0.05000229	          0.05000936	          0.05001077	          0.05000715	          0.43645451	          0.05002197	          0.05001103	          0.05003939	          0.05003399	          0.05000919	          0.89188568	          0.88620199	          0.43267635	          0.17026192	          0.32515618	          0.58755464	          0.05000368	          0.05000335	          0.05000557	          0.49622331	          0.30936990	          0.96416911	          0.49962783	          0.23062364	          0.28804237	          0.05000553	          0.05000866	          0.07376301	          0.05000487	          0.05000133	          0.05000372	          0.05000019	          0.05000015	          0.05000022	          0.06279028	          0.05000307	          0.05000219	          0.06279045	          0.06278536	          0.05001956	          0.05000147	          0.05000405	          0.05000755	          0.05000242	          0.05000340	          0.40595378	          0.48781134	          0.05003370	          0.05004273	          0.05850706	          0.06807220	          0.05331024	          0.08720305	          0.05000608	          0.05000372	          0.05000445	          0.28031318	          0.25197653	          0.05000046	          0.05000082	          0.05000142	          0.17968933	          0.14509150	          0.15947732	          0.09885873	          0.05618901	          0.05319332	          0.05708738	          0.05000043	          0.06279136	          0.05000134	          0.44518678	          0.06279041	          0.06711734	          0.19147843	          0.47574962	          0.26331440	          0.12364427	          0.32042625	          0.10762443	
          0.01534827	         -0.03104839	         -6.34497708	          5.07690481	          0.01111486	          1.01384204	         -0.00816651	        -11.46447434	         -5.95196902	          8.25661587	         17.47571552	          8.45315308	         -6.05523091	         -0.96027270	         -3.47263311	         14.54073186	         10.58433431	        -10.43984790	         -4.51358045	          7.13346668	          0.27853051	         -3.05507696	         -0.95747034	          0.63531561	         -3.50868554	        -14.13813589	         15.68058019	         19.17431662	        -13.48078326	         10.83106226	          2.69159515	         41.86848140	          0.05048981	          0.22892077	          0.24641603	          0.07901833	          0.12446420	          0.10132935	          0.05000202	          0.05000160	          0.05000098	          0.20504521	          0.22546961	          0.05000183	          0.05000218	          0.05000810	          0.05001064	          0.05000718	          0.34870552	          0.05001093	          0.05000953	          0.05004352	          0.05004287	          0.05001330	          0.79179817	          0.85730992	          0.45646305	          0.21879736	          0.29339611	          0.62032333	          0.05000364	          0.05000332	          0.05000554	          0.53230244	          0.34032111	          0.98229008	          0.51956143	          0.25499445	          0.31586711	          0.05000793	          0.06277013	          0.06751100	          0.05001171	          0.05000286	          0.05000655	          0.05000028	          0.05000024	          0.05000015	          0.05000034	          0.05000096	          0.05003726	          0.05000117	          0.05000132	          0.05000724	          0.05000026	          0.05000074	          0.05000650	          0.05000083	          0.09336660	          0.32326763	          0.38844816	          0.05012655	          0.05015286	          0.05001686	          0.05420688	          0.12421078	          0.15021795	          0.05001846	          0.05003203	          0.06279923	          0.26878127	          0.25169422	          0.25458811	          0.07888369	          0.05001449	          0.28628753	          0.13290836	          0.15193905	          0.08458177	          0.05000009	          0.05000026	          0.05000005	          0.07789259	          0.05000359	          0.05490935	          0.35450347	          0.05000035	          0.09796405	          0.15247540	          0.45301574	          0.20967829	          0.12173212	          0.28726679	          0.08570178	
          0.03069654	         -0.08035393	         -5.79854308	          5.30655500	          0.02270189	          1.01122186	         -0.00945125	        -12.19298766	         -5.41935690	          7.96491486	         17.70420757	          7.90292298	         -5.60444960	         -0.86053485	         -4.96218574	         14.71735238	          9.93387332	        -10.03739480	         -5.16266612	          7.70343098	          0.22401449	         -2.96368602	         -0.81132979	          0.61547044	         -2.48474885	        -13.85263080	         17.17707477	         18.66860354	        -13.48424480	         12.42483031	          4.70782523	         36.79962134	          0.05002017	          0.18229083	          0.19622321	          0.06293181	          0.09911380	          0.08069514	          0.05000280	          0.05000219	          0.05000139	          0.16328070	          0.17954872	          0.15056090	          0.05000263	          0.05001176	          0.05001401	          0.05000974	          0.27767579	          0.05001901	          0.05001527	          0.05004001	          0.05003783	          0.05001421	          0.81319138	          0.84962578	          0.44458386	          0.17425914	          0.23363405	          0.53447167	          0.05000460	          0.05000423	          0.05000610	          0.57946852	          0.39795812	          0.99124661	          0.54318236	          0.28414347	          0.35180334	          0.05000360	          0.05001527	          0.05404395	          0.05000420	          0.05000092	          0.05000260	          0.05000018	          0.05000014	          0.05000020	          0.18098710	          0.05000075	          0.05000140	          0.10651015	          0.05000700	          0.05000873	          0.05000134	          0.05000238	          0.05000373	          0.06279423	          0.07435336	          0.25741898	          0.30932243	          0.05005412	          0.05005537	          0.05001160	          0.14340929	          0.09891810	          0.11962075	          0.05000287	          0.05000174	          0.05000879	          0.24134627	          0.20584444	          0.20272919	          0.06281553	          0.05000074	          0.22797258	          0.10583573	          0.12098986	          0.06735330	          0.07164744	          0.07885401	          0.06458083	          0.10345822	          0.05015637	          0.05524066	          0.49637953	          0.13914238	          0.07800916	          0.12141783	          0.54218989	          0.24789434	          0.10786132	          0.30997491	          0.06824462	
          0.04604481	         -0.13080144	         -5.27651958	          5.48911362	          0.03462232	          1.00870768	         -0.01071709	        -12.90336409	         -4.90221624	          7.63083767	         17.81725759	          7.35680489	         -5.16010514	         -0.85102188	         -6.34001518	         14.89231482	          9.30063330	         -9.57960847	         -5.87293812	          8.29154106	          0.21573197	         -2.86347383	         -0.59614874	          0.59749149	         -1.75081982	        -13.64391709	         18.33486564	         17.85591794	        -13.48525985	         14.09277097	          7.47564737	         32.25258271	          0.05000873	          0.14515909	          0.15625412	          0.05011907	          0.07892629	          0.06426358	          0.05000300	          0.05000229	          0.05000138	          0.13002197	          0.14297809	          0.25555360	          0.05001150	          0.05003052	          0.05002548	          0.05001348	          0.22111447	          0.05551725	          0.07558699	          0.05003471	          0.05003273	          0.05002192	          0.76673762	          0.79145748	          0.42322690	          0.13887059	          0.18604505	          0.55077350	          0.05000661	          0.05000619	          0.05000699	          0.61418685	          0.43785508	          0.99567350	          0.55926551	          0.30470255	          0.37720430	          0.05000343	          0.05000123	          0.05000074	          0.05000238	          0.05000065	          0.05000221	          0.06780278	          0.05000009	          0.05000030	          0.21491680	          0.05010674	          0.05001433	          0.15168355	          0.10053465	          0.05004871	          0.05000165	          0.05000362	          0.05000796	          0.05000636	          0.05921307	          0.20498341	          0.24631427	          0.05002839	          0.05002826	          0.05003817	          0.12887022	          0.07877083	          0.09525488	          0.05002272	          0.05001466	          0.05001038	          0.19218477	          0.16391459	          0.16143387	          0.05002129	          0.05001079	          0.18154806	          0.09941036	          0.13137499	          0.05738684	          0.05705315	          0.06279190	          0.05142592	          0.09446654	          0.05000278	          0.05000246	          0.61713796	          0.11347247	          0.08163297	          0.29160256	          0.58959317	          0.36797073	          0.08600325	          0.32012560	          0.05434343	
